<svg width="71" height="75" viewBox="0 0 71 75" fill="none" xmlns="http://www.w3.org/2000/svg">
	<path d="M27.0786 44.7041C26.9966 44.5632 26.9175 44.4209 26.8415 44.2778H21.7021C17.9284 44.277 14.855 41.2193 14.855 37.4633C14.855 33.7051 17.9269 30.6481 21.7036 30.6489H39.6772C42.1708 30.6489 44.4115 31.9908 45.6102 34.0557L47.5873 37.4633L52.0273 29.8082L52.031 29.803C50.7104 27.6924 48.9215 26.0328 46.8758 24.8804C46.6974 24.78 46.6379 24.7485 46.6386 24.7485C44.0961 23.2755 40.1688 22.9908 40.1688 22.9908C40.007 22.9848 39.8428 22.9818 39.6794 22.9826H21.7036C13.6797 22.9826 7.15271 29.4778 7.15271 37.4633C7.1512 45.4481 13.6797 51.9434 21.7028 51.9434H31.2784L27.0786 44.7041Z" fill="#F26A02"/>
	<path d="M52.2818 44.7019C52.2005 44.8427 52.1154 44.9828 52.0296 45.1192L54.5985 49.5488C56.4853 52.8013 55.3605 56.9783 52.092 58.8567C48.8214 60.7351 44.6254 59.6172 42.7378 56.3617L33.7503 40.8717C32.5042 38.7221 32.5516 36.12 33.7495 34.055L35.7267 30.6474L26.8453 30.6489H26.8385C25.6617 32.842 25.1121 35.2134 25.1324 37.5533C25.1339 37.7578 25.1361 37.8245 25.1361 37.823C25.1256 40.7503 26.8407 44.2778 26.8407 44.2778C26.9168 44.4202 26.9958 44.5633 27.0779 44.7041L36.0662 60.1956C40.0778 67.1097 48.9946 69.4886 55.9432 65.4951C62.8926 61.5038 65.2816 52.6297 61.2701 45.7156L56.4815 37.4634L52.2818 44.7026V44.7019Z" fill="#3AA7FB"/>
	<path d="M39.6794 22.9826C39.8428 22.9826 40.007 22.9856 40.1688 22.9909L42.7393 18.5621C44.6261 15.3096 48.8244 14.1902 52.0928 16.0678C55.3627 17.9477 56.4875 22.1225 54.5992 25.3772L45.6132 40.8672C44.3656 43.0161 42.0775 44.2763 39.6809 44.2763H35.7266L40.1688 51.9299L40.1718 51.9359C42.6693 51.8535 45.0078 51.141 47.0339 49.9542C47.2109 49.8508 47.2681 49.8148 47.2666 49.8155C49.8197 48.3612 52.031 45.1192 52.031 45.1192C52.1169 44.9829 52.2019 44.8428 52.2833 44.7019L61.2708 29.2104C65.2824 22.2963 62.8941 13.4229 55.9439 9.43093C48.996 5.43743 40.0792 7.81555 36.0677 14.7304L31.2799 22.9834H39.6794V22.9826Z" fill="#1954B3"/>
</svg>
